<mxfile host="Electron" modified="2023-09-07T22:47:00.049Z" agent="Mozilla/5.0 (Windows NT 10.0; Win64; x64) AppleWebKit/537.36 (KHTML, like Gecko) draw.io/21.6.5 Chrome/114.0.5735.243 Electron/25.3.1 Safari/537.36" etag="7RuGhyTQpQMhdbsrzrg7" version="21.6.5" type="device">
  <diagram name="Página-1" id="Z0bkVasVvb7_r7aqNp32">
    <mxGraphModel dx="2598" dy="2823" grid="1" gridSize="10" guides="1" tooltips="1" connect="1" arrows="1" fold="1" page="1" pageScale="1" pageWidth="827" pageHeight="1169" math="0" shadow="0">
      <root>
        <mxCell id="0" />
        <mxCell id="1" parent="0" />
        <mxCell id="HGXjP1CdnwYC6qvyRPhj-8" style="edgeStyle=orthogonalEdgeStyle;rounded=0;orthogonalLoop=1;jettySize=auto;html=1;" parent="1" source="HGXjP1CdnwYC6qvyRPhj-2" target="HGXjP1CdnwYC6qvyRPhj-9" edge="1">
          <mxGeometry relative="1" as="geometry">
            <mxPoint x="1654.8" y="-310" as="targetPoint" />
          </mxGeometry>
        </mxCell>
        <mxCell id="HGXjP1CdnwYC6qvyRPhj-2" value="" style="verticalLabelPosition=bottom;verticalAlign=top;html=1;shape=hexagon;perimeter=hexagonPerimeter2;arcSize=6;size=0.27;" parent="1" vertex="1">
          <mxGeometry x="1584.8" y="-420" width="140" height="60" as="geometry" />
        </mxCell>
        <mxCell id="Zvn_0b7_q9g8LE5xiCcE-2" style="edgeStyle=orthogonalEdgeStyle;rounded=0;orthogonalLoop=1;jettySize=auto;html=1;" parent="1" source="HGXjP1CdnwYC6qvyRPhj-7" target="Zvn_0b7_q9g8LE5xiCcE-1" edge="1">
          <mxGeometry relative="1" as="geometry">
            <Array as="points">
              <mxPoint x="1779.8" y="-390" />
              <mxPoint x="1779.8" y="60" />
              <mxPoint x="1649.8" y="60" />
            </Array>
          </mxGeometry>
        </mxCell>
        <mxCell id="HGXjP1CdnwYC6qvyRPhj-7" value="i=0 ; i&amp;lt;quantidadeRegistros ; i++" style="text;html=1;strokeColor=none;fillColor=none;align=center;verticalAlign=middle;whiteSpace=wrap;rounded=0;" parent="1" vertex="1">
          <mxGeometry x="1594.8" y="-405" width="120" height="30" as="geometry" />
        </mxCell>
        <mxCell id="HGXjP1CdnwYC6qvyRPhj-11" value="" style="edgeStyle=orthogonalEdgeStyle;rounded=0;orthogonalLoop=1;jettySize=auto;html=1;" parent="1" source="HGXjP1CdnwYC6qvyRPhj-9" target="HGXjP1CdnwYC6qvyRPhj-10" edge="1">
          <mxGeometry relative="1" as="geometry" />
        </mxCell>
        <mxCell id="HGXjP1CdnwYC6qvyRPhj-9" value="cadastrarPessoas[i].nome" style="html=1;strokeWidth=2;shape=manualInput;whiteSpace=wrap;rounded=1;size=26;arcSize=11;" parent="1" vertex="1">
          <mxGeometry x="1579.8" y="-300" width="150" height="60" as="geometry" />
        </mxCell>
        <mxCell id="HGXjP1CdnwYC6qvyRPhj-12" style="edgeStyle=orthogonalEdgeStyle;rounded=0;orthogonalLoop=1;jettySize=auto;html=1;entryX=0;entryY=0.5;entryDx=0;entryDy=0;exitX=0.463;exitY=1.12;exitDx=0;exitDy=0;exitPerimeter=0;" parent="1" source="HGXjP1CdnwYC6qvyRPhj-13" target="HGXjP1CdnwYC6qvyRPhj-2" edge="1">
          <mxGeometry relative="1" as="geometry">
            <mxPoint x="1654.8" y="-90" as="sourcePoint" />
            <Array as="points">
              <mxPoint x="1648.8" y="20" />
              <mxPoint x="1529.8" y="20" />
              <mxPoint x="1529.8" y="-390" />
            </Array>
          </mxGeometry>
        </mxCell>
        <mxCell id="HGXjP1CdnwYC6qvyRPhj-14" style="edgeStyle=orthogonalEdgeStyle;rounded=0;orthogonalLoop=1;jettySize=auto;html=1;" parent="1" source="HGXjP1CdnwYC6qvyRPhj-10" target="HGXjP1CdnwYC6qvyRPhj-13" edge="1">
          <mxGeometry relative="1" as="geometry" />
        </mxCell>
        <mxCell id="HGXjP1CdnwYC6qvyRPhj-10" value="cadastrarPessoas[i].altura" style="html=1;strokeWidth=2;shape=manualInput;whiteSpace=wrap;rounded=1;size=26;arcSize=11;" parent="1" vertex="1">
          <mxGeometry x="1579.8" y="-190" width="150" height="60" as="geometry" />
        </mxCell>
        <mxCell id="HGXjP1CdnwYC6qvyRPhj-13" value="mediaAltura += cadastrarPessoas[i].altura;" style="rounded=1;whiteSpace=wrap;html=1;absoluteArcSize=1;arcSize=14;strokeWidth=2;" parent="1" vertex="1">
          <mxGeometry x="1574.8" y="-90" width="160" height="50" as="geometry" />
        </mxCell>
        <mxCell id="HGXjP1CdnwYC6qvyRPhj-23" style="edgeStyle=orthogonalEdgeStyle;rounded=0;orthogonalLoop=1;jettySize=auto;html=1;entryX=0.5;entryY=0;entryDx=0;entryDy=0;" parent="1" source="HGXjP1CdnwYC6qvyRPhj-17" target="HGXjP1CdnwYC6qvyRPhj-21" edge="1">
          <mxGeometry relative="1" as="geometry" />
        </mxCell>
        <mxCell id="WEm-kXCdfUgt3-A9MzFr-171" style="edgeStyle=orthogonalEdgeStyle;rounded=0;orthogonalLoop=1;jettySize=auto;html=1;" edge="1" parent="1" source="HGXjP1CdnwYC6qvyRPhj-17" target="HGXjP1CdnwYC6qvyRPhj-44">
          <mxGeometry relative="1" as="geometry">
            <Array as="points">
              <mxPoint x="1920" y="230" />
              <mxPoint x="1920" y="1035" />
            </Array>
          </mxGeometry>
        </mxCell>
        <mxCell id="HGXjP1CdnwYC6qvyRPhj-17" value="" style="verticalLabelPosition=bottom;verticalAlign=top;html=1;shape=hexagon;perimeter=hexagonPerimeter2;arcSize=6;size=0.27;" parent="1" vertex="1">
          <mxGeometry x="1584.8" y="200" width="140" height="60" as="geometry" />
        </mxCell>
        <mxCell id="HGXjP1CdnwYC6qvyRPhj-18" value="i=0 ; i&amp;lt;quantidadeRegistros ; i++" style="text;html=1;strokeColor=none;fillColor=none;align=center;verticalAlign=middle;whiteSpace=wrap;rounded=0;" parent="1" vertex="1">
          <mxGeometry x="1594.8" y="215" width="120" height="30" as="geometry" />
        </mxCell>
        <mxCell id="HGXjP1CdnwYC6qvyRPhj-24" style="edgeStyle=orthogonalEdgeStyle;rounded=0;orthogonalLoop=1;jettySize=auto;html=1;" parent="1" source="HGXjP1CdnwYC6qvyRPhj-21" target="HGXjP1CdnwYC6qvyRPhj-25" edge="1">
          <mxGeometry relative="1" as="geometry">
            <mxPoint x="1654.8" y="409.9999999999998" as="targetPoint" />
          </mxGeometry>
        </mxCell>
        <mxCell id="WEm-kXCdfUgt3-A9MzFr-170" style="edgeStyle=orthogonalEdgeStyle;rounded=0;orthogonalLoop=1;jettySize=auto;html=1;entryX=0;entryY=0.5;entryDx=0;entryDy=0;" edge="1" parent="1" source="HGXjP1CdnwYC6qvyRPhj-21" target="HGXjP1CdnwYC6qvyRPhj-17">
          <mxGeometry relative="1" as="geometry">
            <Array as="points">
              <mxPoint x="1880" y="330" />
              <mxPoint x="1880" y="1000" />
              <mxPoint x="1320" y="1000" />
              <mxPoint x="1320" y="230" />
            </Array>
          </mxGeometry>
        </mxCell>
        <mxCell id="HGXjP1CdnwYC6qvyRPhj-21" value="" style="verticalLabelPosition=bottom;verticalAlign=top;html=1;shape=hexagon;perimeter=hexagonPerimeter2;arcSize=6;size=0.27;" parent="1" vertex="1">
          <mxGeometry x="1584.8" y="300" width="140" height="60" as="geometry" />
        </mxCell>
        <mxCell id="HGXjP1CdnwYC6qvyRPhj-22" value="int j=0 ; j&amp;lt;quantidadeRegistros ; j++" style="text;html=1;strokeColor=none;fillColor=none;align=center;verticalAlign=middle;whiteSpace=wrap;rounded=0;" parent="1" vertex="1">
          <mxGeometry x="1594.8" y="315" width="120" height="30" as="geometry" />
        </mxCell>
        <mxCell id="HGXjP1CdnwYC6qvyRPhj-26" style="edgeStyle=orthogonalEdgeStyle;rounded=0;orthogonalLoop=1;jettySize=auto;html=1;entryX=1;entryY=0.5;entryDx=0;entryDy=0;entryPerimeter=0;" parent="1" source="HGXjP1CdnwYC6qvyRPhj-25" target="HGXjP1CdnwYC6qvyRPhj-36" edge="1">
          <mxGeometry relative="1" as="geometry">
            <mxPoint x="1849.8" y="850" as="targetPoint" />
            <Array as="points">
              <mxPoint x="1849.8" y="470" />
              <mxPoint x="1849.8" y="845" />
            </Array>
          </mxGeometry>
        </mxCell>
        <mxCell id="HGXjP1CdnwYC6qvyRPhj-27" style="edgeStyle=orthogonalEdgeStyle;rounded=0;orthogonalLoop=1;jettySize=auto;html=1;" parent="1" source="HGXjP1CdnwYC6qvyRPhj-25" target="HGXjP1CdnwYC6qvyRPhj-30" edge="1">
          <mxGeometry relative="1" as="geometry">
            <mxPoint x="1459.8" y="560" as="targetPoint" />
          </mxGeometry>
        </mxCell>
        <mxCell id="HGXjP1CdnwYC6qvyRPhj-25" value="strcmp(cadastrarPessoas[i],nome, cadastrarPessoas[j].nome) == 0" style="strokeWidth=2;html=1;shape=mxgraph.flowchart.decision;whiteSpace=wrap;" parent="1" vertex="1">
          <mxGeometry x="1542.3" y="420" width="225" height="100" as="geometry" />
        </mxCell>
        <mxCell id="HGXjP1CdnwYC6qvyRPhj-28" value="Sim" style="text;html=1;strokeColor=none;fillColor=none;align=center;verticalAlign=middle;whiteSpace=wrap;rounded=0;" parent="1" vertex="1">
          <mxGeometry x="1459.8" y="440" width="60" height="30" as="geometry" />
        </mxCell>
        <mxCell id="HGXjP1CdnwYC6qvyRPhj-29" value="Não" style="text;html=1;strokeColor=none;fillColor=none;align=center;verticalAlign=middle;whiteSpace=wrap;rounded=0;" parent="1" vertex="1">
          <mxGeometry x="1789.8" y="440" width="60" height="30" as="geometry" />
        </mxCell>
        <mxCell id="HGXjP1CdnwYC6qvyRPhj-32" value="" style="edgeStyle=orthogonalEdgeStyle;rounded=0;orthogonalLoop=1;jettySize=auto;html=1;" parent="1" source="HGXjP1CdnwYC6qvyRPhj-30" target="HGXjP1CdnwYC6qvyRPhj-31" edge="1">
          <mxGeometry relative="1" as="geometry" />
        </mxCell>
        <mxCell id="HGXjP1CdnwYC6qvyRPhj-30" value="auxiliarTrocador = cadastrarPessoas[i];" style="rounded=1;whiteSpace=wrap;html=1;absoluteArcSize=1;arcSize=14;strokeWidth=2;" parent="1" vertex="1">
          <mxGeometry x="1409.8" y="570" width="120" height="50" as="geometry" />
        </mxCell>
        <mxCell id="HGXjP1CdnwYC6qvyRPhj-34" style="edgeStyle=orthogonalEdgeStyle;rounded=0;orthogonalLoop=1;jettySize=auto;html=1;" parent="1" source="HGXjP1CdnwYC6qvyRPhj-31" target="HGXjP1CdnwYC6qvyRPhj-33" edge="1">
          <mxGeometry relative="1" as="geometry" />
        </mxCell>
        <mxCell id="HGXjP1CdnwYC6qvyRPhj-31" value="cadastrarPessoas[i] = cadastrarPessoas[j];" style="rounded=1;whiteSpace=wrap;html=1;absoluteArcSize=1;arcSize=14;strokeWidth=2;" parent="1" vertex="1">
          <mxGeometry x="1409.8" y="650" width="120" height="50" as="geometry" />
        </mxCell>
        <mxCell id="HGXjP1CdnwYC6qvyRPhj-35" style="edgeStyle=orthogonalEdgeStyle;rounded=0;orthogonalLoop=1;jettySize=auto;html=1;" parent="1" source="HGXjP1CdnwYC6qvyRPhj-33" target="HGXjP1CdnwYC6qvyRPhj-36" edge="1">
          <mxGeometry relative="1" as="geometry">
            <mxPoint x="1469.8" y="840" as="targetPoint" />
            <Array as="points">
              <mxPoint x="1469.8" y="845" />
            </Array>
          </mxGeometry>
        </mxCell>
        <mxCell id="HGXjP1CdnwYC6qvyRPhj-33" value="cadastrarPessoas[j] = auxiliarTrocador;" style="rounded=1;whiteSpace=wrap;html=1;absoluteArcSize=1;arcSize=14;strokeWidth=2;" parent="1" vertex="1">
          <mxGeometry x="1409.8" y="730" width="120" height="50" as="geometry" />
        </mxCell>
        <mxCell id="WEm-kXCdfUgt3-A9MzFr-169" style="edgeStyle=orthogonalEdgeStyle;rounded=0;orthogonalLoop=1;jettySize=auto;html=1;entryX=0;entryY=0.5;entryDx=0;entryDy=0;" edge="1" parent="1" source="HGXjP1CdnwYC6qvyRPhj-36" target="HGXjP1CdnwYC6qvyRPhj-21">
          <mxGeometry relative="1" as="geometry">
            <Array as="points">
              <mxPoint x="1655" y="920" />
              <mxPoint x="1360" y="920" />
              <mxPoint x="1360" y="330" />
            </Array>
          </mxGeometry>
        </mxCell>
        <mxCell id="HGXjP1CdnwYC6qvyRPhj-36" value="" style="strokeWidth=2;html=1;shape=mxgraph.flowchart.start_2;whiteSpace=wrap;" parent="1" vertex="1">
          <mxGeometry x="1639.8" y="830" width="30" height="30" as="geometry" />
        </mxCell>
        <mxCell id="HGXjP1CdnwYC6qvyRPhj-45" style="edgeStyle=orthogonalEdgeStyle;rounded=0;orthogonalLoop=1;jettySize=auto;html=1;" parent="1" source="HGXjP1CdnwYC6qvyRPhj-44" edge="1" target="WEm-kXCdfUgt3-A9MzFr-93">
          <mxGeometry relative="1" as="geometry">
            <mxPoint x="1654.8" y="1129.9999999999995" as="targetPoint" />
          </mxGeometry>
        </mxCell>
        <mxCell id="HGXjP1CdnwYC6qvyRPhj-44" value="cadastrou == true;" style="rounded=1;whiteSpace=wrap;html=1;absoluteArcSize=1;arcSize=14;strokeWidth=2;" parent="1" vertex="1">
          <mxGeometry x="1602.3" y="1060" width="105" height="50" as="geometry" />
        </mxCell>
        <mxCell id="Zvn_0b7_q9g8LE5xiCcE-3" style="edgeStyle=orthogonalEdgeStyle;rounded=0;orthogonalLoop=1;jettySize=auto;html=1;entryX=0.5;entryY=0;entryDx=0;entryDy=0;" parent="1" source="Zvn_0b7_q9g8LE5xiCcE-1" target="HGXjP1CdnwYC6qvyRPhj-17" edge="1">
          <mxGeometry relative="1" as="geometry" />
        </mxCell>
        <mxCell id="Zvn_0b7_q9g8LE5xiCcE-1" value="mediaAltura = mediaAltura/quantidadeRegistros;" style="rounded=1;whiteSpace=wrap;html=1;absoluteArcSize=1;arcSize=14;strokeWidth=2;" parent="1" vertex="1">
          <mxGeometry x="1559.8" y="100" width="190" height="50" as="geometry" />
        </mxCell>
        <mxCell id="Zvn_0b7_q9g8LE5xiCcE-4" style="edgeStyle=orthogonalEdgeStyle;rounded=0;orthogonalLoop=1;jettySize=auto;html=1;" parent="1" source="Zvn_0b7_q9g8LE5xiCcE-5" target="Zvn_0b7_q9g8LE5xiCcE-14" edge="1">
          <mxGeometry relative="1" as="geometry">
            <mxPoint x="964.8" y="30.000000000000455" as="targetPoint" />
          </mxGeometry>
        </mxCell>
        <mxCell id="Zvn_0b7_q9g8LE5xiCcE-5" value="" style="verticalLabelPosition=bottom;verticalAlign=top;html=1;shape=hexagon;perimeter=hexagonPerimeter2;arcSize=6;size=0.27;" parent="1" vertex="1">
          <mxGeometry x="894.8" y="-90" width="140" height="60" as="geometry" />
        </mxCell>
        <mxCell id="Zvn_0b7_q9g8LE5xiCcE-44" value="" style="edgeStyle=orthogonalEdgeStyle;rounded=0;orthogonalLoop=1;jettySize=auto;html=1;" parent="1" target="Zvn_0b7_q9g8LE5xiCcE-14" edge="1">
          <mxGeometry relative="1" as="geometry">
            <mxPoint x="964.8" y="-40" as="sourcePoint" />
          </mxGeometry>
        </mxCell>
        <mxCell id="Zvn_0b7_q9g8LE5xiCcE-46" style="edgeStyle=orthogonalEdgeStyle;rounded=0;orthogonalLoop=1;jettySize=auto;html=1;" parent="1" source="Zvn_0b7_q9g8LE5xiCcE-6" target="WEm-kXCdfUgt3-A9MzFr-98" edge="1">
          <mxGeometry relative="1" as="geometry">
            <mxPoint x="969.8344827586207" y="555" as="targetPoint" />
            <Array as="points">
              <mxPoint x="1139.8" y="-60" />
              <mxPoint x="1139.8" y="510" />
              <mxPoint x="969.8" y="510" />
            </Array>
          </mxGeometry>
        </mxCell>
        <mxCell id="Zvn_0b7_q9g8LE5xiCcE-6" value="i=0 ; i&amp;lt;quantidadeRegistros ; i++" style="text;html=1;strokeColor=none;fillColor=none;align=center;verticalAlign=middle;whiteSpace=wrap;rounded=0;" parent="1" vertex="1">
          <mxGeometry x="904.8" y="-75" width="120" height="30" as="geometry" />
        </mxCell>
        <mxCell id="Zvn_0b7_q9g8LE5xiCcE-15" style="edgeStyle=orthogonalEdgeStyle;rounded=0;orthogonalLoop=1;jettySize=auto;html=1;entryX=1;entryY=0.5;entryDx=0;entryDy=0;entryPerimeter=0;" parent="1" source="Zvn_0b7_q9g8LE5xiCcE-14" target="Zvn_0b7_q9g8LE5xiCcE-23" edge="1">
          <mxGeometry relative="1" as="geometry">
            <mxPoint x="1099.8" y="140.00000000000045" as="targetPoint" />
            <Array as="points">
              <mxPoint x="1099.8" y="80" />
              <mxPoint x="1099.8" y="375" />
            </Array>
          </mxGeometry>
        </mxCell>
        <mxCell id="Zvn_0b7_q9g8LE5xiCcE-16" style="edgeStyle=orthogonalEdgeStyle;rounded=0;orthogonalLoop=1;jettySize=auto;html=1;" parent="1" source="Zvn_0b7_q9g8LE5xiCcE-14" target="Zvn_0b7_q9g8LE5xiCcE-19" edge="1">
          <mxGeometry relative="1" as="geometry">
            <mxPoint x="819.8" y="140.00000000000045" as="targetPoint" />
          </mxGeometry>
        </mxCell>
        <mxCell id="Zvn_0b7_q9g8LE5xiCcE-14" value="cadastrarPessoas[i]. altura &amp;lt;= 1.5" style="strokeWidth=2;html=1;shape=mxgraph.flowchart.decision;whiteSpace=wrap;" parent="1" vertex="1">
          <mxGeometry x="897.3" y="30" width="135" height="100" as="geometry" />
        </mxCell>
        <mxCell id="Zvn_0b7_q9g8LE5xiCcE-17" value="Sim" style="text;html=1;strokeColor=none;fillColor=none;align=center;verticalAlign=middle;whiteSpace=wrap;rounded=0;" parent="1" vertex="1">
          <mxGeometry x="819.8" y="50" width="60" height="30" as="geometry" />
        </mxCell>
        <mxCell id="Zvn_0b7_q9g8LE5xiCcE-18" value="Não" style="text;html=1;strokeColor=none;fillColor=none;align=center;verticalAlign=middle;whiteSpace=wrap;rounded=0;" parent="1" vertex="1">
          <mxGeometry x="1039.8" y="50" width="60" height="30" as="geometry" />
        </mxCell>
        <mxCell id="Zvn_0b7_q9g8LE5xiCcE-21" style="edgeStyle=orthogonalEdgeStyle;rounded=0;orthogonalLoop=1;jettySize=auto;html=1;" parent="1" source="Zvn_0b7_q9g8LE5xiCcE-19" target="Zvn_0b7_q9g8LE5xiCcE-20" edge="1">
          <mxGeometry relative="1" as="geometry" />
        </mxCell>
        <mxCell id="Zvn_0b7_q9g8LE5xiCcE-19" value="cadastrarPessoas[i].nome" style="strokeWidth=2;html=1;shape=mxgraph.flowchart.display;whiteSpace=wrap;" parent="1" vertex="1">
          <mxGeometry x="744.8" y="150" width="150" height="60" as="geometry" />
        </mxCell>
        <mxCell id="Zvn_0b7_q9g8LE5xiCcE-26" style="edgeStyle=orthogonalEdgeStyle;rounded=0;orthogonalLoop=1;jettySize=auto;html=1;entryX=0;entryY=0.5;entryDx=0;entryDy=0;entryPerimeter=0;" parent="1" source="Zvn_0b7_q9g8LE5xiCcE-20" target="Zvn_0b7_q9g8LE5xiCcE-23" edge="1">
          <mxGeometry relative="1" as="geometry">
            <Array as="points">
              <mxPoint x="819.8" y="375" />
            </Array>
          </mxGeometry>
        </mxCell>
        <mxCell id="Zvn_0b7_q9g8LE5xiCcE-20" value="cadastrarPessoas[i].altura" style="strokeWidth=2;html=1;shape=mxgraph.flowchart.display;whiteSpace=wrap;" parent="1" vertex="1">
          <mxGeometry x="744.8" y="260" width="150" height="60" as="geometry" />
        </mxCell>
        <mxCell id="Zvn_0b7_q9g8LE5xiCcE-40" style="edgeStyle=orthogonalEdgeStyle;rounded=0;orthogonalLoop=1;jettySize=auto;html=1;entryX=0;entryY=0.5;entryDx=0;entryDy=0;" parent="1" source="Zvn_0b7_q9g8LE5xiCcE-23" target="Zvn_0b7_q9g8LE5xiCcE-6" edge="1">
          <mxGeometry relative="1" as="geometry">
            <Array as="points">
              <mxPoint x="964.8" y="460" />
              <mxPoint x="739.8" y="460" />
              <mxPoint x="739.8" y="-60" />
            </Array>
          </mxGeometry>
        </mxCell>
        <mxCell id="Zvn_0b7_q9g8LE5xiCcE-23" value="" style="strokeWidth=2;html=1;shape=mxgraph.flowchart.start_2;whiteSpace=wrap;" parent="1" vertex="1">
          <mxGeometry x="949.8" y="360" width="30" height="30" as="geometry" />
        </mxCell>
        <mxCell id="Zvn_0b7_q9g8LE5xiCcE-31" style="edgeStyle=orthogonalEdgeStyle;rounded=0;orthogonalLoop=1;jettySize=auto;html=1;entryX=0.5;entryY=0;entryDx=0;entryDy=0;" parent="1" source="Zvn_0b7_q9g8LE5xiCcE-29" target="Zvn_0b7_q9g8LE5xiCcE-5" edge="1">
          <mxGeometry relative="1" as="geometry" />
        </mxCell>
        <mxCell id="Zvn_0b7_q9g8LE5xiCcE-33" style="edgeStyle=orthogonalEdgeStyle;rounded=0;orthogonalLoop=1;jettySize=auto;html=1;" parent="1" source="Zvn_0b7_q9g8LE5xiCcE-29" target="Zvn_0b7_q9g8LE5xiCcE-36" edge="1">
          <mxGeometry relative="1" as="geometry">
            <mxPoint x="1259.8" y="-99.99999999999955" as="targetPoint" />
          </mxGeometry>
        </mxCell>
        <mxCell id="Zvn_0b7_q9g8LE5xiCcE-29" value="cadastrou == true" style="strokeWidth=2;html=1;shape=mxgraph.flowchart.decision;whiteSpace=wrap;" parent="1" vertex="1">
          <mxGeometry x="1059.8" y="-210" width="110" height="100" as="geometry" />
        </mxCell>
        <mxCell id="Zvn_0b7_q9g8LE5xiCcE-32" value="Sim" style="text;html=1;strokeColor=none;fillColor=none;align=center;verticalAlign=middle;whiteSpace=wrap;rounded=0;" parent="1" vertex="1">
          <mxGeometry x="964.8" y="-190" width="60" height="30" as="geometry" />
        </mxCell>
        <mxCell id="Zvn_0b7_q9g8LE5xiCcE-34" value="Não" style="text;html=1;strokeColor=none;fillColor=none;align=center;verticalAlign=middle;whiteSpace=wrap;rounded=0;" parent="1" vertex="1">
          <mxGeometry x="1199.8" y="-190" width="60" height="30" as="geometry" />
        </mxCell>
        <mxCell id="Zvn_0b7_q9g8LE5xiCcE-49" style="edgeStyle=orthogonalEdgeStyle;rounded=0;orthogonalLoop=1;jettySize=auto;html=1;entryX=1;entryY=0.5;entryDx=0;entryDy=0;entryPerimeter=0;" parent="1" source="Zvn_0b7_q9g8LE5xiCcE-36" edge="1">
          <mxGeometry relative="1" as="geometry">
            <Array as="points">
              <mxPoint x="1269.8" y="573" />
            </Array>
            <mxPoint x="989.8" y="572.5" as="targetPoint" />
          </mxGeometry>
        </mxCell>
        <mxCell id="Zvn_0b7_q9g8LE5xiCcE-36" value="&quot;Cadastre pessoas primeiro&quot;" style="strokeWidth=2;html=1;shape=mxgraph.flowchart.display;whiteSpace=wrap;" parent="1" vertex="1">
          <mxGeometry x="1209.8" y="-80" width="120" height="60" as="geometry" />
        </mxCell>
        <mxCell id="WEm-kXCdfUgt3-A9MzFr-1" style="edgeStyle=orthogonalEdgeStyle;rounded=0;orthogonalLoop=1;jettySize=auto;html=1;" edge="1" source="WEm-kXCdfUgt3-A9MzFr-2" target="WEm-kXCdfUgt3-A9MzFr-8" parent="1">
          <mxGeometry relative="1" as="geometry">
            <mxPoint x="304.8" y="165.00000000000045" as="targetPoint" />
          </mxGeometry>
        </mxCell>
        <mxCell id="WEm-kXCdfUgt3-A9MzFr-2" value="" style="verticalLabelPosition=bottom;verticalAlign=top;html=1;shape=hexagon;perimeter=hexagonPerimeter2;arcSize=6;size=0.27;" vertex="1" parent="1">
          <mxGeometry x="234.8" y="45" width="140" height="60" as="geometry" />
        </mxCell>
        <mxCell id="WEm-kXCdfUgt3-A9MzFr-3" value="" style="edgeStyle=orthogonalEdgeStyle;rounded=0;orthogonalLoop=1;jettySize=auto;html=1;" edge="1" source="WEm-kXCdfUgt3-A9MzFr-5" target="WEm-kXCdfUgt3-A9MzFr-8" parent="1">
          <mxGeometry relative="1" as="geometry" />
        </mxCell>
        <mxCell id="WEm-kXCdfUgt3-A9MzFr-4" style="edgeStyle=orthogonalEdgeStyle;rounded=0;orthogonalLoop=1;jettySize=auto;html=1;" edge="1" source="WEm-kXCdfUgt3-A9MzFr-5" parent="1">
          <mxGeometry relative="1" as="geometry">
            <mxPoint x="309.8" y="690" as="targetPoint" />
            <Array as="points">
              <mxPoint x="479.8" y="75" />
              <mxPoint x="479.8" y="645" />
              <mxPoint x="309.8" y="645" />
            </Array>
          </mxGeometry>
        </mxCell>
        <mxCell id="WEm-kXCdfUgt3-A9MzFr-5" value="i=0 ; i&amp;lt;quantidadeRegistros ; i++" style="text;html=1;strokeColor=none;fillColor=none;align=center;verticalAlign=middle;whiteSpace=wrap;rounded=0;" vertex="1" parent="1">
          <mxGeometry x="244.8" y="60" width="120" height="30" as="geometry" />
        </mxCell>
        <mxCell id="WEm-kXCdfUgt3-A9MzFr-6" style="edgeStyle=orthogonalEdgeStyle;rounded=0;orthogonalLoop=1;jettySize=auto;html=1;entryX=1;entryY=0.5;entryDx=0;entryDy=0;entryPerimeter=0;" edge="1" source="WEm-kXCdfUgt3-A9MzFr-8" target="WEm-kXCdfUgt3-A9MzFr-16" parent="1">
          <mxGeometry relative="1" as="geometry">
            <mxPoint x="439.8" y="275.00000000000045" as="targetPoint" />
            <Array as="points">
              <mxPoint x="439.8" y="215" />
              <mxPoint x="439.8" y="510" />
            </Array>
          </mxGeometry>
        </mxCell>
        <mxCell id="WEm-kXCdfUgt3-A9MzFr-7" style="edgeStyle=orthogonalEdgeStyle;rounded=0;orthogonalLoop=1;jettySize=auto;html=1;" edge="1" source="WEm-kXCdfUgt3-A9MzFr-8" target="WEm-kXCdfUgt3-A9MzFr-12" parent="1">
          <mxGeometry relative="1" as="geometry">
            <mxPoint x="159.8" y="275.00000000000045" as="targetPoint" />
          </mxGeometry>
        </mxCell>
        <mxCell id="WEm-kXCdfUgt3-A9MzFr-8" value="cadastrarPessoas[i]. altura &amp;gt; 1.5" style="strokeWidth=2;html=1;shape=mxgraph.flowchart.decision;whiteSpace=wrap;" vertex="1" parent="1">
          <mxGeometry x="237.3" y="165" width="135" height="100" as="geometry" />
        </mxCell>
        <mxCell id="WEm-kXCdfUgt3-A9MzFr-9" value="Sim" style="text;html=1;strokeColor=none;fillColor=none;align=center;verticalAlign=middle;whiteSpace=wrap;rounded=0;" vertex="1" parent="1">
          <mxGeometry x="159.8" y="185" width="60" height="30" as="geometry" />
        </mxCell>
        <mxCell id="WEm-kXCdfUgt3-A9MzFr-10" value="Não" style="text;html=1;strokeColor=none;fillColor=none;align=center;verticalAlign=middle;whiteSpace=wrap;rounded=0;" vertex="1" parent="1">
          <mxGeometry x="379.8" y="185" width="60" height="30" as="geometry" />
        </mxCell>
        <mxCell id="WEm-kXCdfUgt3-A9MzFr-11" style="edgeStyle=orthogonalEdgeStyle;rounded=0;orthogonalLoop=1;jettySize=auto;html=1;" edge="1" source="WEm-kXCdfUgt3-A9MzFr-12" target="WEm-kXCdfUgt3-A9MzFr-14" parent="1">
          <mxGeometry relative="1" as="geometry" />
        </mxCell>
        <mxCell id="WEm-kXCdfUgt3-A9MzFr-12" value="cadastrarPessoas[i].nome" style="strokeWidth=2;html=1;shape=mxgraph.flowchart.display;whiteSpace=wrap;" vertex="1" parent="1">
          <mxGeometry x="84.8" y="285" width="150" height="60" as="geometry" />
        </mxCell>
        <mxCell id="WEm-kXCdfUgt3-A9MzFr-13" style="edgeStyle=orthogonalEdgeStyle;rounded=0;orthogonalLoop=1;jettySize=auto;html=1;entryX=0;entryY=0.5;entryDx=0;entryDy=0;entryPerimeter=0;" edge="1" source="WEm-kXCdfUgt3-A9MzFr-14" target="WEm-kXCdfUgt3-A9MzFr-16" parent="1">
          <mxGeometry relative="1" as="geometry">
            <Array as="points">
              <mxPoint x="159.8" y="510" />
            </Array>
          </mxGeometry>
        </mxCell>
        <mxCell id="WEm-kXCdfUgt3-A9MzFr-14" value="cadastrarPessoas[i].altura" style="strokeWidth=2;html=1;shape=mxgraph.flowchart.display;whiteSpace=wrap;" vertex="1" parent="1">
          <mxGeometry x="84.8" y="395" width="150" height="60" as="geometry" />
        </mxCell>
        <mxCell id="WEm-kXCdfUgt3-A9MzFr-15" style="edgeStyle=orthogonalEdgeStyle;rounded=0;orthogonalLoop=1;jettySize=auto;html=1;entryX=0;entryY=0.5;entryDx=0;entryDy=0;" edge="1" source="WEm-kXCdfUgt3-A9MzFr-16" target="WEm-kXCdfUgt3-A9MzFr-5" parent="1">
          <mxGeometry relative="1" as="geometry">
            <Array as="points">
              <mxPoint x="304.8" y="595" />
              <mxPoint x="79.8" y="595" />
              <mxPoint x="79.8" y="75" />
            </Array>
          </mxGeometry>
        </mxCell>
        <mxCell id="WEm-kXCdfUgt3-A9MzFr-16" value="" style="strokeWidth=2;html=1;shape=mxgraph.flowchart.start_2;whiteSpace=wrap;" vertex="1" parent="1">
          <mxGeometry x="289.8" y="495" width="30" height="30" as="geometry" />
        </mxCell>
        <mxCell id="WEm-kXCdfUgt3-A9MzFr-17" style="edgeStyle=orthogonalEdgeStyle;rounded=0;orthogonalLoop=1;jettySize=auto;html=1;entryX=0.5;entryY=0;entryDx=0;entryDy=0;" edge="1" source="WEm-kXCdfUgt3-A9MzFr-19" target="WEm-kXCdfUgt3-A9MzFr-2" parent="1">
          <mxGeometry relative="1" as="geometry" />
        </mxCell>
        <mxCell id="WEm-kXCdfUgt3-A9MzFr-18" style="edgeStyle=orthogonalEdgeStyle;rounded=0;orthogonalLoop=1;jettySize=auto;html=1;" edge="1" source="WEm-kXCdfUgt3-A9MzFr-19" target="WEm-kXCdfUgt3-A9MzFr-23" parent="1">
          <mxGeometry relative="1" as="geometry">
            <mxPoint x="599.8" y="35.000000000000455" as="targetPoint" />
          </mxGeometry>
        </mxCell>
        <mxCell id="WEm-kXCdfUgt3-A9MzFr-19" value="cadastrou == true" style="strokeWidth=2;html=1;shape=mxgraph.flowchart.decision;whiteSpace=wrap;" vertex="1" parent="1">
          <mxGeometry x="399.8" y="-75" width="110" height="100" as="geometry" />
        </mxCell>
        <mxCell id="WEm-kXCdfUgt3-A9MzFr-20" value="Sim" style="text;html=1;strokeColor=none;fillColor=none;align=center;verticalAlign=middle;whiteSpace=wrap;rounded=0;" vertex="1" parent="1">
          <mxGeometry x="304.8" y="-55" width="60" height="30" as="geometry" />
        </mxCell>
        <mxCell id="WEm-kXCdfUgt3-A9MzFr-21" value="Não" style="text;html=1;strokeColor=none;fillColor=none;align=center;verticalAlign=middle;whiteSpace=wrap;rounded=0;" vertex="1" parent="1">
          <mxGeometry x="539.8" y="-55" width="60" height="30" as="geometry" />
        </mxCell>
        <mxCell id="WEm-kXCdfUgt3-A9MzFr-22" style="edgeStyle=orthogonalEdgeStyle;rounded=0;orthogonalLoop=1;jettySize=auto;html=1;entryX=1;entryY=0.5;entryDx=0;entryDy=0;entryPerimeter=0;" edge="1" source="WEm-kXCdfUgt3-A9MzFr-23" parent="1">
          <mxGeometry relative="1" as="geometry">
            <Array as="points">
              <mxPoint x="609.8" y="708" />
            </Array>
            <mxPoint x="329.8" y="707.5" as="targetPoint" />
          </mxGeometry>
        </mxCell>
        <mxCell id="WEm-kXCdfUgt3-A9MzFr-23" value="&quot;Cadastre pessoas primeiro&quot;" style="strokeWidth=2;html=1;shape=mxgraph.flowchart.display;whiteSpace=wrap;" vertex="1" parent="1">
          <mxGeometry x="549.8" y="55" width="120" height="60" as="geometry" />
        </mxCell>
        <mxCell id="WEm-kXCdfUgt3-A9MzFr-25" style="edgeStyle=orthogonalEdgeStyle;rounded=0;orthogonalLoop=1;jettySize=auto;html=1;" edge="1" source="WEm-kXCdfUgt3-A9MzFr-26" target="WEm-kXCdfUgt3-A9MzFr-32" parent="1">
          <mxGeometry relative="1" as="geometry">
            <mxPoint x="-335.31" y="345.00000000000045" as="targetPoint" />
          </mxGeometry>
        </mxCell>
        <mxCell id="WEm-kXCdfUgt3-A9MzFr-26" value="" style="verticalLabelPosition=bottom;verticalAlign=top;html=1;shape=hexagon;perimeter=hexagonPerimeter2;arcSize=6;size=0.27;" vertex="1" parent="1">
          <mxGeometry x="-405.31" y="225" width="140" height="60" as="geometry" />
        </mxCell>
        <mxCell id="WEm-kXCdfUgt3-A9MzFr-27" value="" style="edgeStyle=orthogonalEdgeStyle;rounded=0;orthogonalLoop=1;jettySize=auto;html=1;" edge="1" source="WEm-kXCdfUgt3-A9MzFr-29" target="WEm-kXCdfUgt3-A9MzFr-32" parent="1">
          <mxGeometry relative="1" as="geometry" />
        </mxCell>
        <mxCell id="WEm-kXCdfUgt3-A9MzFr-28" style="edgeStyle=orthogonalEdgeStyle;rounded=0;orthogonalLoop=1;jettySize=auto;html=1;" edge="1" source="WEm-kXCdfUgt3-A9MzFr-29" target="WEm-kXCdfUgt3-A9MzFr-48" parent="1">
          <mxGeometry relative="1" as="geometry">
            <mxPoint x="-335.31" y="875" as="targetPoint" />
            <Array as="points">
              <mxPoint x="-160.31" y="255" />
              <mxPoint x="-160.31" y="825" />
              <mxPoint x="-330.31" y="825" />
            </Array>
          </mxGeometry>
        </mxCell>
        <mxCell id="WEm-kXCdfUgt3-A9MzFr-29" value="i=0 ; i&amp;lt;quantidadeRegistros ; i++" style="text;html=1;strokeColor=none;fillColor=none;align=center;verticalAlign=middle;whiteSpace=wrap;rounded=0;" vertex="1" parent="1">
          <mxGeometry x="-395.31" y="240" width="120" height="30" as="geometry" />
        </mxCell>
        <mxCell id="WEm-kXCdfUgt3-A9MzFr-30" style="edgeStyle=orthogonalEdgeStyle;rounded=0;orthogonalLoop=1;jettySize=auto;html=1;entryX=1;entryY=0.5;entryDx=0;entryDy=0;entryPerimeter=0;" edge="1" source="WEm-kXCdfUgt3-A9MzFr-32" target="WEm-kXCdfUgt3-A9MzFr-40" parent="1">
          <mxGeometry relative="1" as="geometry">
            <mxPoint x="-200.31" y="455.00000000000045" as="targetPoint" />
            <Array as="points">
              <mxPoint x="-200.31" y="395" />
              <mxPoint x="-200.31" y="690" />
            </Array>
          </mxGeometry>
        </mxCell>
        <mxCell id="WEm-kXCdfUgt3-A9MzFr-31" style="edgeStyle=orthogonalEdgeStyle;rounded=0;orthogonalLoop=1;jettySize=auto;html=1;" edge="1" source="WEm-kXCdfUgt3-A9MzFr-32" target="WEm-kXCdfUgt3-A9MzFr-36" parent="1">
          <mxGeometry relative="1" as="geometry">
            <mxPoint x="-480.31" y="455.00000000000045" as="targetPoint" />
          </mxGeometry>
        </mxCell>
        <mxCell id="WEm-kXCdfUgt3-A9MzFr-32" value="cadastrarPessoas[i]. altura &amp;gt; 1.5 &amp;amp;&amp;amp; cadastrarPessoas[i]. altura &amp;lt; 2.0" style="strokeWidth=2;html=1;shape=mxgraph.flowchart.decision;whiteSpace=wrap;" vertex="1" parent="1">
          <mxGeometry x="-402.81" y="345" width="135" height="100" as="geometry" />
        </mxCell>
        <mxCell id="WEm-kXCdfUgt3-A9MzFr-33" value="Sim" style="text;html=1;strokeColor=none;fillColor=none;align=center;verticalAlign=middle;whiteSpace=wrap;rounded=0;" vertex="1" parent="1">
          <mxGeometry x="-480.31" y="365" width="60" height="30" as="geometry" />
        </mxCell>
        <mxCell id="WEm-kXCdfUgt3-A9MzFr-34" value="Não" style="text;html=1;strokeColor=none;fillColor=none;align=center;verticalAlign=middle;whiteSpace=wrap;rounded=0;" vertex="1" parent="1">
          <mxGeometry x="-260.31" y="365" width="60" height="30" as="geometry" />
        </mxCell>
        <mxCell id="WEm-kXCdfUgt3-A9MzFr-35" style="edgeStyle=orthogonalEdgeStyle;rounded=0;orthogonalLoop=1;jettySize=auto;html=1;" edge="1" source="WEm-kXCdfUgt3-A9MzFr-36" target="WEm-kXCdfUgt3-A9MzFr-38" parent="1">
          <mxGeometry relative="1" as="geometry" />
        </mxCell>
        <mxCell id="WEm-kXCdfUgt3-A9MzFr-36" value="cadastrarPessoas[i].nome" style="strokeWidth=2;html=1;shape=mxgraph.flowchart.display;whiteSpace=wrap;" vertex="1" parent="1">
          <mxGeometry x="-555.3100000000001" y="465" width="150" height="60" as="geometry" />
        </mxCell>
        <mxCell id="WEm-kXCdfUgt3-A9MzFr-37" style="edgeStyle=orthogonalEdgeStyle;rounded=0;orthogonalLoop=1;jettySize=auto;html=1;entryX=0;entryY=0.5;entryDx=0;entryDy=0;entryPerimeter=0;" edge="1" source="WEm-kXCdfUgt3-A9MzFr-38" target="WEm-kXCdfUgt3-A9MzFr-40" parent="1">
          <mxGeometry relative="1" as="geometry">
            <Array as="points">
              <mxPoint x="-480.31" y="690" />
            </Array>
          </mxGeometry>
        </mxCell>
        <mxCell id="WEm-kXCdfUgt3-A9MzFr-38" value="cadastrarPessoas[i].altura" style="strokeWidth=2;html=1;shape=mxgraph.flowchart.display;whiteSpace=wrap;" vertex="1" parent="1">
          <mxGeometry x="-555.3100000000001" y="575" width="150" height="60" as="geometry" />
        </mxCell>
        <mxCell id="WEm-kXCdfUgt3-A9MzFr-39" style="edgeStyle=orthogonalEdgeStyle;rounded=0;orthogonalLoop=1;jettySize=auto;html=1;entryX=0;entryY=0.5;entryDx=0;entryDy=0;" edge="1" source="WEm-kXCdfUgt3-A9MzFr-40" target="WEm-kXCdfUgt3-A9MzFr-29" parent="1">
          <mxGeometry relative="1" as="geometry">
            <Array as="points">
              <mxPoint x="-335.31" y="775" />
              <mxPoint x="-560.3100000000001" y="775" />
              <mxPoint x="-560.3100000000001" y="255" />
            </Array>
          </mxGeometry>
        </mxCell>
        <mxCell id="WEm-kXCdfUgt3-A9MzFr-40" value="" style="strokeWidth=2;html=1;shape=mxgraph.flowchart.start_2;whiteSpace=wrap;" vertex="1" parent="1">
          <mxGeometry x="-350.31" y="675" width="30" height="30" as="geometry" />
        </mxCell>
        <mxCell id="WEm-kXCdfUgt3-A9MzFr-41" style="edgeStyle=orthogonalEdgeStyle;rounded=0;orthogonalLoop=1;jettySize=auto;html=1;entryX=0.5;entryY=0;entryDx=0;entryDy=0;" edge="1" source="WEm-kXCdfUgt3-A9MzFr-43" target="WEm-kXCdfUgt3-A9MzFr-26" parent="1">
          <mxGeometry relative="1" as="geometry" />
        </mxCell>
        <mxCell id="WEm-kXCdfUgt3-A9MzFr-42" style="edgeStyle=orthogonalEdgeStyle;rounded=0;orthogonalLoop=1;jettySize=auto;html=1;" edge="1" source="WEm-kXCdfUgt3-A9MzFr-43" target="WEm-kXCdfUgt3-A9MzFr-47" parent="1">
          <mxGeometry relative="1" as="geometry">
            <mxPoint x="-40.31000000000002" y="215.00000000000045" as="targetPoint" />
          </mxGeometry>
        </mxCell>
        <mxCell id="WEm-kXCdfUgt3-A9MzFr-43" value="cadastrou == true" style="strokeWidth=2;html=1;shape=mxgraph.flowchart.decision;whiteSpace=wrap;" vertex="1" parent="1">
          <mxGeometry x="-240.31" y="105" width="110" height="100" as="geometry" />
        </mxCell>
        <mxCell id="WEm-kXCdfUgt3-A9MzFr-44" value="Sim" style="text;html=1;strokeColor=none;fillColor=none;align=center;verticalAlign=middle;whiteSpace=wrap;rounded=0;" vertex="1" parent="1">
          <mxGeometry x="-335.31" y="125" width="60" height="30" as="geometry" />
        </mxCell>
        <mxCell id="WEm-kXCdfUgt3-A9MzFr-45" value="Não" style="text;html=1;strokeColor=none;fillColor=none;align=center;verticalAlign=middle;whiteSpace=wrap;rounded=0;" vertex="1" parent="1">
          <mxGeometry x="-100.31000000000002" y="125" width="60" height="30" as="geometry" />
        </mxCell>
        <mxCell id="WEm-kXCdfUgt3-A9MzFr-46" style="edgeStyle=orthogonalEdgeStyle;rounded=0;orthogonalLoop=1;jettySize=auto;html=1;entryX=1;entryY=0.5;entryDx=0;entryDy=0;entryPerimeter=0;" edge="1" source="WEm-kXCdfUgt3-A9MzFr-47" target="WEm-kXCdfUgt3-A9MzFr-48" parent="1">
          <mxGeometry relative="1" as="geometry">
            <Array as="points">
              <mxPoint x="-30.310000000000016" y="888" />
            </Array>
          </mxGeometry>
        </mxCell>
        <mxCell id="WEm-kXCdfUgt3-A9MzFr-47" value="&quot;Cadastre pessoas primeiro&quot;" style="strokeWidth=2;html=1;shape=mxgraph.flowchart.display;whiteSpace=wrap;" vertex="1" parent="1">
          <mxGeometry x="-90.31000000000002" y="235" width="120" height="60" as="geometry" />
        </mxCell>
        <mxCell id="WEm-kXCdfUgt3-A9MzFr-131" style="edgeStyle=orthogonalEdgeStyle;rounded=0;orthogonalLoop=1;jettySize=auto;html=1;" edge="1" parent="1" source="WEm-kXCdfUgt3-A9MzFr-48" target="WEm-kXCdfUgt3-A9MzFr-130">
          <mxGeometry relative="1" as="geometry" />
        </mxCell>
        <mxCell id="WEm-kXCdfUgt3-A9MzFr-48" value="" style="strokeWidth=2;html=1;shape=mxgraph.flowchart.start_2;whiteSpace=wrap;" vertex="1" parent="1">
          <mxGeometry x="-350.31" y="870" width="40" height="35" as="geometry" />
        </mxCell>
        <mxCell id="WEm-kXCdfUgt3-A9MzFr-50" value="" style="verticalLabelPosition=bottom;verticalAlign=top;html=1;shape=hexagon;perimeter=hexagonPerimeter2;arcSize=6;size=0.27;" vertex="1" parent="1">
          <mxGeometry x="-1035.2" y="375" width="140" height="60" as="geometry" />
        </mxCell>
        <mxCell id="WEm-kXCdfUgt3-A9MzFr-51" value="" style="edgeStyle=orthogonalEdgeStyle;rounded=0;orthogonalLoop=1;jettySize=auto;html=1;" edge="1" source="WEm-kXCdfUgt3-A9MzFr-53" target="WEm-kXCdfUgt3-A9MzFr-60" parent="1">
          <mxGeometry relative="1" as="geometry">
            <mxPoint x="-965.2" y="495" as="targetPoint" />
            <Array as="points">
              <mxPoint x="-965.2" y="495" />
              <mxPoint x="-965.2" y="495" />
            </Array>
          </mxGeometry>
        </mxCell>
        <mxCell id="WEm-kXCdfUgt3-A9MzFr-52" style="edgeStyle=orthogonalEdgeStyle;rounded=0;orthogonalLoop=1;jettySize=auto;html=1;" edge="1" source="WEm-kXCdfUgt3-A9MzFr-53" target="WEm-kXCdfUgt3-A9MzFr-75" parent="1">
          <mxGeometry relative="1" as="geometry">
            <mxPoint x="-965.2" y="745" as="targetPoint" />
            <Array as="points">
              <mxPoint x="-790.2" y="405" />
              <mxPoint x="-790.2" y="715" />
              <mxPoint x="-960.2" y="715" />
              <mxPoint x="-960.2" y="745" />
            </Array>
          </mxGeometry>
        </mxCell>
        <mxCell id="WEm-kXCdfUgt3-A9MzFr-53" value="i=0 ; i&amp;lt;quantidadeRegistros ; i++" style="text;html=1;strokeColor=none;fillColor=none;align=center;verticalAlign=middle;whiteSpace=wrap;rounded=0;" vertex="1" parent="1">
          <mxGeometry x="-1025.2" y="390" width="120" height="30" as="geometry" />
        </mxCell>
        <mxCell id="WEm-kXCdfUgt3-A9MzFr-59" style="edgeStyle=orthogonalEdgeStyle;rounded=0;orthogonalLoop=1;jettySize=auto;html=1;" edge="1" source="WEm-kXCdfUgt3-A9MzFr-60" target="WEm-kXCdfUgt3-A9MzFr-62" parent="1">
          <mxGeometry relative="1" as="geometry" />
        </mxCell>
        <mxCell id="WEm-kXCdfUgt3-A9MzFr-60" value="cadastrarPessoas[i].nome" style="strokeWidth=2;html=1;shape=mxgraph.flowchart.display;whiteSpace=wrap;" vertex="1" parent="1">
          <mxGeometry x="-1045.2" y="475" width="150" height="60" as="geometry" />
        </mxCell>
        <mxCell id="WEm-kXCdfUgt3-A9MzFr-74" style="edgeStyle=orthogonalEdgeStyle;rounded=0;orthogonalLoop=1;jettySize=auto;html=1;entryX=0;entryY=0.5;entryDx=0;entryDy=0;" edge="1" parent="1" source="WEm-kXCdfUgt3-A9MzFr-62" target="WEm-kXCdfUgt3-A9MzFr-50">
          <mxGeometry relative="1" as="geometry">
            <mxPoint x="-970.2" y="685" as="targetPoint" />
            <Array as="points">
              <mxPoint x="-970.2" y="705" />
              <mxPoint x="-1090.2" y="705" />
              <mxPoint x="-1090.2" y="405" />
            </Array>
          </mxGeometry>
        </mxCell>
        <mxCell id="WEm-kXCdfUgt3-A9MzFr-62" value="cadastrarPessoas[i].altura" style="strokeWidth=2;html=1;shape=mxgraph.flowchart.display;whiteSpace=wrap;" vertex="1" parent="1">
          <mxGeometry x="-1045.2" y="585" width="150" height="60" as="geometry" />
        </mxCell>
        <mxCell id="WEm-kXCdfUgt3-A9MzFr-65" style="edgeStyle=orthogonalEdgeStyle;rounded=0;orthogonalLoop=1;jettySize=auto;html=1;entryX=0.5;entryY=0;entryDx=0;entryDy=0;" edge="1" source="WEm-kXCdfUgt3-A9MzFr-67" target="WEm-kXCdfUgt3-A9MzFr-50" parent="1">
          <mxGeometry relative="1" as="geometry" />
        </mxCell>
        <mxCell id="WEm-kXCdfUgt3-A9MzFr-66" style="edgeStyle=orthogonalEdgeStyle;rounded=0;orthogonalLoop=1;jettySize=auto;html=1;" edge="1" source="WEm-kXCdfUgt3-A9MzFr-67" target="WEm-kXCdfUgt3-A9MzFr-71" parent="1">
          <mxGeometry relative="1" as="geometry">
            <mxPoint x="-670.2" y="365.00000000000045" as="targetPoint" />
          </mxGeometry>
        </mxCell>
        <mxCell id="WEm-kXCdfUgt3-A9MzFr-67" value="cadastrou == true" style="strokeWidth=2;html=1;shape=mxgraph.flowchart.decision;whiteSpace=wrap;" vertex="1" parent="1">
          <mxGeometry x="-870.2" y="255" width="110" height="100" as="geometry" />
        </mxCell>
        <mxCell id="WEm-kXCdfUgt3-A9MzFr-68" value="Sim" style="text;html=1;strokeColor=none;fillColor=none;align=center;verticalAlign=middle;whiteSpace=wrap;rounded=0;" vertex="1" parent="1">
          <mxGeometry x="-965.2" y="275" width="60" height="30" as="geometry" />
        </mxCell>
        <mxCell id="WEm-kXCdfUgt3-A9MzFr-69" value="Não" style="text;html=1;strokeColor=none;fillColor=none;align=center;verticalAlign=middle;whiteSpace=wrap;rounded=0;" vertex="1" parent="1">
          <mxGeometry x="-730.2" y="275" width="60" height="30" as="geometry" />
        </mxCell>
        <mxCell id="WEm-kXCdfUgt3-A9MzFr-123" style="edgeStyle=orthogonalEdgeStyle;rounded=0;orthogonalLoop=1;jettySize=auto;html=1;entryX=1;entryY=0.5;entryDx=0;entryDy=0;entryPerimeter=0;" edge="1" parent="1" source="WEm-kXCdfUgt3-A9MzFr-71" target="WEm-kXCdfUgt3-A9MzFr-72">
          <mxGeometry relative="1" as="geometry">
            <Array as="points">
              <mxPoint x="-660.2" y="873" />
            </Array>
          </mxGeometry>
        </mxCell>
        <mxCell id="WEm-kXCdfUgt3-A9MzFr-71" value="&quot;Cadastre pessoas primeiro&quot;" style="strokeWidth=2;html=1;shape=mxgraph.flowchart.display;whiteSpace=wrap;" vertex="1" parent="1">
          <mxGeometry x="-720.2" y="385" width="120" height="60" as="geometry" />
        </mxCell>
        <mxCell id="WEm-kXCdfUgt3-A9MzFr-133" style="edgeStyle=orthogonalEdgeStyle;rounded=0;orthogonalLoop=1;jettySize=auto;html=1;" edge="1" parent="1" source="WEm-kXCdfUgt3-A9MzFr-72" target="WEm-kXCdfUgt3-A9MzFr-132">
          <mxGeometry relative="1" as="geometry" />
        </mxCell>
        <mxCell id="WEm-kXCdfUgt3-A9MzFr-72" value="" style="strokeWidth=2;html=1;shape=mxgraph.flowchart.start_2;whiteSpace=wrap;" vertex="1" parent="1">
          <mxGeometry x="-974.49" y="860" width="28.57" height="25" as="geometry" />
        </mxCell>
        <mxCell id="WEm-kXCdfUgt3-A9MzFr-77" style="edgeStyle=orthogonalEdgeStyle;rounded=0;orthogonalLoop=1;jettySize=auto;html=1;entryX=0.5;entryY=0;entryDx=0;entryDy=0;entryPerimeter=0;" edge="1" parent="1" source="WEm-kXCdfUgt3-A9MzFr-75" target="WEm-kXCdfUgt3-A9MzFr-72">
          <mxGeometry relative="1" as="geometry" />
        </mxCell>
        <mxCell id="WEm-kXCdfUgt3-A9MzFr-75" value="mediaAltura" style="strokeWidth=2;html=1;shape=mxgraph.flowchart.display;whiteSpace=wrap;" vertex="1" parent="1">
          <mxGeometry x="-1010.2" y="765" width="100" height="60" as="geometry" />
        </mxCell>
        <mxCell id="WEm-kXCdfUgt3-A9MzFr-78" value="Escolha uma opção&amp;nbsp;&lt;br&gt;[0] Cadastrar 15 registros&lt;br&gt;[1] Mostrar pessoas menores que 1.5 m&lt;br&gt;[2] Mostrar pessoas maiores que 1.5 m&lt;br&gt;[3] Mostrar pessoas maiores que 1.5 e menor que 2.0&lt;br&gt;[4] Apresentar todos os registros&lt;br&gt;[5] Sair do programa" style="text;html=1;strokeColor=none;fillColor=none;align=center;verticalAlign=middle;whiteSpace=wrap;rounded=0;" vertex="1" parent="1">
          <mxGeometry x="-1290.2" y="-760" width="220" height="120" as="geometry" />
        </mxCell>
        <mxCell id="WEm-kXCdfUgt3-A9MzFr-165" style="edgeStyle=orthogonalEdgeStyle;rounded=0;orthogonalLoop=1;jettySize=auto;html=1;" edge="1" parent="1" source="WEm-kXCdfUgt3-A9MzFr-80" target="WEm-kXCdfUgt3-A9MzFr-164">
          <mxGeometry relative="1" as="geometry" />
        </mxCell>
        <mxCell id="WEm-kXCdfUgt3-A9MzFr-80" value="Inicio" style="strokeWidth=2;html=1;shape=mxgraph.flowchart.terminator;whiteSpace=wrap;" vertex="1" parent="1">
          <mxGeometry x="-1510.2" y="-1120" width="100" height="60" as="geometry" />
        </mxCell>
        <mxCell id="WEm-kXCdfUgt3-A9MzFr-83" style="edgeStyle=orthogonalEdgeStyle;rounded=0;orthogonalLoop=1;jettySize=auto;html=1;" edge="1" parent="1" source="WEm-kXCdfUgt3-A9MzFr-81" target="WEm-kXCdfUgt3-A9MzFr-87">
          <mxGeometry relative="1" as="geometry">
            <mxPoint x="-1460.2" y="-760" as="targetPoint" />
          </mxGeometry>
        </mxCell>
        <mxCell id="WEm-kXCdfUgt3-A9MzFr-163" style="edgeStyle=orthogonalEdgeStyle;rounded=0;orthogonalLoop=1;jettySize=auto;html=1;" edge="1" parent="1" source="WEm-kXCdfUgt3-A9MzFr-81" target="WEm-kXCdfUgt3-A9MzFr-162">
          <mxGeometry relative="1" as="geometry">
            <Array as="points">
              <mxPoint x="1959.8" y="-870" />
              <mxPoint x="1959.8" y="1230" />
              <mxPoint x="-1450.2" y="1230" />
            </Array>
          </mxGeometry>
        </mxCell>
        <mxCell id="WEm-kXCdfUgt3-A9MzFr-81" value="parada != false" style="strokeWidth=2;html=1;shape=mxgraph.flowchart.decision;whiteSpace=wrap;" vertex="1" parent="1">
          <mxGeometry x="-1510.2" y="-920" width="100" height="100" as="geometry" />
        </mxCell>
        <mxCell id="WEm-kXCdfUgt3-A9MzFr-85" value="Sim" style="text;html=1;strokeColor=none;fillColor=none;align=center;verticalAlign=middle;whiteSpace=wrap;rounded=0;" vertex="1" parent="1">
          <mxGeometry x="-1520.2" y="-810" width="60" height="30" as="geometry" />
        </mxCell>
        <mxCell id="WEm-kXCdfUgt3-A9MzFr-91" style="edgeStyle=orthogonalEdgeStyle;rounded=0;orthogonalLoop=1;jettySize=auto;html=1;" edge="1" parent="1" source="WEm-kXCdfUgt3-A9MzFr-86">
          <mxGeometry relative="1" as="geometry">
            <mxPoint x="1690" y="-510" as="targetPoint" />
          </mxGeometry>
        </mxCell>
        <mxCell id="WEm-kXCdfUgt3-A9MzFr-94" style="edgeStyle=orthogonalEdgeStyle;rounded=0;orthogonalLoop=1;jettySize=auto;html=1;" edge="1" parent="1" source="WEm-kXCdfUgt3-A9MzFr-86" target="WEm-kXCdfUgt3-A9MzFr-97">
          <mxGeometry relative="1" as="geometry">
            <mxPoint x="-1460.2" y="-360" as="targetPoint" />
          </mxGeometry>
        </mxCell>
        <mxCell id="WEm-kXCdfUgt3-A9MzFr-86" value="opcaoEscolhida == 0" style="strokeWidth=2;html=1;shape=mxgraph.flowchart.decision;whiteSpace=wrap;" vertex="1" parent="1">
          <mxGeometry x="-1510.2" y="-520" width="100" height="100" as="geometry" />
        </mxCell>
        <mxCell id="WEm-kXCdfUgt3-A9MzFr-88" style="edgeStyle=orthogonalEdgeStyle;rounded=0;orthogonalLoop=1;jettySize=auto;html=1;" edge="1" parent="1" source="WEm-kXCdfUgt3-A9MzFr-87" target="WEm-kXCdfUgt3-A9MzFr-89">
          <mxGeometry relative="1" as="geometry">
            <mxPoint x="-1460.2" y="-600" as="targetPoint" />
          </mxGeometry>
        </mxCell>
        <mxCell id="WEm-kXCdfUgt3-A9MzFr-87" value="[tela]" style="strokeWidth=2;html=1;shape=mxgraph.flowchart.display;whiteSpace=wrap;" vertex="1" parent="1">
          <mxGeometry x="-1510.2" y="-740" width="100" height="60" as="geometry" />
        </mxCell>
        <mxCell id="WEm-kXCdfUgt3-A9MzFr-90" style="edgeStyle=orthogonalEdgeStyle;rounded=0;orthogonalLoop=1;jettySize=auto;html=1;" edge="1" parent="1" source="WEm-kXCdfUgt3-A9MzFr-89" target="WEm-kXCdfUgt3-A9MzFr-86">
          <mxGeometry relative="1" as="geometry" />
        </mxCell>
        <mxCell id="WEm-kXCdfUgt3-A9MzFr-89" value="opcaoEscolhida" style="html=1;strokeWidth=2;shape=manualInput;whiteSpace=wrap;rounded=1;size=26;arcSize=11;" vertex="1" parent="1">
          <mxGeometry x="-1510.2" y="-630" width="100" height="60" as="geometry" />
        </mxCell>
        <mxCell id="WEm-kXCdfUgt3-A9MzFr-92" value="Sim" style="text;html=1;strokeColor=none;fillColor=none;align=center;verticalAlign=middle;whiteSpace=wrap;rounded=0;" vertex="1" parent="1">
          <mxGeometry x="-1380.2" y="-500" width="60" height="30" as="geometry" />
        </mxCell>
        <mxCell id="WEm-kXCdfUgt3-A9MzFr-137" style="edgeStyle=orthogonalEdgeStyle;rounded=0;orthogonalLoop=1;jettySize=auto;html=1;" edge="1" parent="1" source="WEm-kXCdfUgt3-A9MzFr-93" target="WEm-kXCdfUgt3-A9MzFr-138">
          <mxGeometry relative="1" as="geometry">
            <mxPoint x="1499.8" y="1190" as="targetPoint" />
            <Array as="points">
              <mxPoint x="1654.8" y="1150" />
            </Array>
          </mxGeometry>
        </mxCell>
        <mxCell id="WEm-kXCdfUgt3-A9MzFr-93" value="break;" style="rounded=1;whiteSpace=wrap;html=1;absoluteArcSize=1;arcSize=14;strokeWidth=2;" vertex="1" parent="1">
          <mxGeometry x="1602.3" y="1130" width="105" height="50" as="geometry" />
        </mxCell>
        <mxCell id="WEm-kXCdfUgt3-A9MzFr-95" value="Não" style="text;html=1;strokeColor=none;fillColor=none;align=center;verticalAlign=middle;whiteSpace=wrap;rounded=0;" vertex="1" parent="1">
          <mxGeometry x="-1520.2" y="-410" width="60" height="30" as="geometry" />
        </mxCell>
        <mxCell id="WEm-kXCdfUgt3-A9MzFr-99" style="edgeStyle=orthogonalEdgeStyle;rounded=0;orthogonalLoop=1;jettySize=auto;html=1;entryX=0.5;entryY=0;entryDx=0;entryDy=0;entryPerimeter=0;" edge="1" parent="1" source="WEm-kXCdfUgt3-A9MzFr-97" target="Zvn_0b7_q9g8LE5xiCcE-29">
          <mxGeometry relative="1" as="geometry" />
        </mxCell>
        <mxCell id="WEm-kXCdfUgt3-A9MzFr-105" style="edgeStyle=orthogonalEdgeStyle;rounded=0;orthogonalLoop=1;jettySize=auto;html=1;" edge="1" parent="1" source="WEm-kXCdfUgt3-A9MzFr-97" target="WEm-kXCdfUgt3-A9MzFr-104">
          <mxGeometry relative="1" as="geometry" />
        </mxCell>
        <mxCell id="WEm-kXCdfUgt3-A9MzFr-97" value="opcaoEscolhida == 1" style="strokeWidth=2;html=1;shape=mxgraph.flowchart.decision;whiteSpace=wrap;" vertex="1" parent="1">
          <mxGeometry x="-1510.2" y="-360" width="100" height="100" as="geometry" />
        </mxCell>
        <mxCell id="WEm-kXCdfUgt3-A9MzFr-103" style="edgeStyle=orthogonalEdgeStyle;rounded=0;orthogonalLoop=1;jettySize=auto;html=1;" edge="1" parent="1" source="WEm-kXCdfUgt3-A9MzFr-98" target="WEm-kXCdfUgt3-A9MzFr-102">
          <mxGeometry relative="1" as="geometry" />
        </mxCell>
        <mxCell id="WEm-kXCdfUgt3-A9MzFr-98" value="" style="strokeWidth=2;html=1;shape=mxgraph.flowchart.start_2;whiteSpace=wrap;" vertex="1" parent="1">
          <mxGeometry x="959.8" y="555" width="30" height="30" as="geometry" />
        </mxCell>
        <mxCell id="WEm-kXCdfUgt3-A9MzFr-100" value="Sim" style="text;html=1;strokeColor=none;fillColor=none;align=center;verticalAlign=middle;whiteSpace=wrap;rounded=0;" vertex="1" parent="1">
          <mxGeometry x="-1380.2" y="-340" width="60" height="30" as="geometry" />
        </mxCell>
        <mxCell id="WEm-kXCdfUgt3-A9MzFr-140" style="edgeStyle=orthogonalEdgeStyle;rounded=0;orthogonalLoop=1;jettySize=auto;html=1;entryX=0.5;entryY=0;entryDx=0;entryDy=0;entryPerimeter=0;" edge="1" parent="1" source="WEm-kXCdfUgt3-A9MzFr-102" target="WEm-kXCdfUgt3-A9MzFr-138">
          <mxGeometry relative="1" as="geometry" />
        </mxCell>
        <mxCell id="WEm-kXCdfUgt3-A9MzFr-102" value="break;" style="rounded=1;whiteSpace=wrap;html=1;absoluteArcSize=1;arcSize=14;strokeWidth=2;" vertex="1" parent="1">
          <mxGeometry x="922.3" y="630" width="105" height="50" as="geometry" />
        </mxCell>
        <mxCell id="WEm-kXCdfUgt3-A9MzFr-107" style="edgeStyle=orthogonalEdgeStyle;rounded=0;orthogonalLoop=1;jettySize=auto;html=1;entryX=0.5;entryY=0;entryDx=0;entryDy=0;entryPerimeter=0;" edge="1" parent="1" source="WEm-kXCdfUgt3-A9MzFr-104" target="WEm-kXCdfUgt3-A9MzFr-19">
          <mxGeometry relative="1" as="geometry" />
        </mxCell>
        <mxCell id="WEm-kXCdfUgt3-A9MzFr-114" style="edgeStyle=orthogonalEdgeStyle;rounded=0;orthogonalLoop=1;jettySize=auto;html=1;" edge="1" parent="1" source="WEm-kXCdfUgt3-A9MzFr-104" target="WEm-kXCdfUgt3-A9MzFr-113">
          <mxGeometry relative="1" as="geometry" />
        </mxCell>
        <mxCell id="WEm-kXCdfUgt3-A9MzFr-104" value="opcaoEscolhida == 2" style="strokeWidth=2;html=1;shape=mxgraph.flowchart.decision;whiteSpace=wrap;" vertex="1" parent="1">
          <mxGeometry x="-1510.2" y="-200" width="100" height="100" as="geometry" />
        </mxCell>
        <mxCell id="WEm-kXCdfUgt3-A9MzFr-106" value="Não" style="text;html=1;strokeColor=none;fillColor=none;align=center;verticalAlign=middle;whiteSpace=wrap;rounded=0;" vertex="1" parent="1">
          <mxGeometry x="-1520.2" y="-250" width="60" height="30" as="geometry" />
        </mxCell>
        <mxCell id="WEm-kXCdfUgt3-A9MzFr-112" style="edgeStyle=orthogonalEdgeStyle;rounded=0;orthogonalLoop=1;jettySize=auto;html=1;" edge="1" parent="1" source="WEm-kXCdfUgt3-A9MzFr-108" target="WEm-kXCdfUgt3-A9MzFr-111">
          <mxGeometry relative="1" as="geometry" />
        </mxCell>
        <mxCell id="WEm-kXCdfUgt3-A9MzFr-108" value="" style="strokeWidth=2;html=1;shape=mxgraph.flowchart.start_2;whiteSpace=wrap;" vertex="1" parent="1">
          <mxGeometry x="299.8" y="690" width="30" height="30" as="geometry" />
        </mxCell>
        <mxCell id="WEm-kXCdfUgt3-A9MzFr-142" style="edgeStyle=orthogonalEdgeStyle;rounded=0;orthogonalLoop=1;jettySize=auto;html=1;entryX=0.5;entryY=0;entryDx=0;entryDy=0;entryPerimeter=0;" edge="1" parent="1" source="WEm-kXCdfUgt3-A9MzFr-111" target="WEm-kXCdfUgt3-A9MzFr-144">
          <mxGeometry relative="1" as="geometry">
            <mxPoint x="314.8" y="940" as="targetPoint" />
          </mxGeometry>
        </mxCell>
        <mxCell id="WEm-kXCdfUgt3-A9MzFr-111" value="break;" style="rounded=1;whiteSpace=wrap;html=1;absoluteArcSize=1;arcSize=14;strokeWidth=2;" vertex="1" parent="1">
          <mxGeometry x="262.3" y="760" width="105" height="50" as="geometry" />
        </mxCell>
        <mxCell id="WEm-kXCdfUgt3-A9MzFr-117" style="edgeStyle=orthogonalEdgeStyle;rounded=0;orthogonalLoop=1;jettySize=auto;html=1;" edge="1" parent="1" source="WEm-kXCdfUgt3-A9MzFr-113" target="WEm-kXCdfUgt3-A9MzFr-43">
          <mxGeometry relative="1" as="geometry" />
        </mxCell>
        <mxCell id="WEm-kXCdfUgt3-A9MzFr-120" style="edgeStyle=orthogonalEdgeStyle;rounded=0;orthogonalLoop=1;jettySize=auto;html=1;" edge="1" parent="1" source="WEm-kXCdfUgt3-A9MzFr-113" target="WEm-kXCdfUgt3-A9MzFr-119">
          <mxGeometry relative="1" as="geometry" />
        </mxCell>
        <mxCell id="WEm-kXCdfUgt3-A9MzFr-113" value="opcaoEscolhida == 3" style="strokeWidth=2;html=1;shape=mxgraph.flowchart.decision;whiteSpace=wrap;" vertex="1" parent="1">
          <mxGeometry x="-1510.2" y="-40" width="100" height="100" as="geometry" />
        </mxCell>
        <mxCell id="WEm-kXCdfUgt3-A9MzFr-115" value="Não" style="text;html=1;strokeColor=none;fillColor=none;align=center;verticalAlign=middle;whiteSpace=wrap;rounded=0;" vertex="1" parent="1">
          <mxGeometry x="-1520.2" y="-90" width="60" height="30" as="geometry" />
        </mxCell>
        <mxCell id="WEm-kXCdfUgt3-A9MzFr-116" value="Sim" style="text;html=1;strokeColor=none;fillColor=none;align=center;verticalAlign=middle;whiteSpace=wrap;rounded=0;" vertex="1" parent="1">
          <mxGeometry x="-1380.2" y="-180" width="60" height="30" as="geometry" />
        </mxCell>
        <mxCell id="WEm-kXCdfUgt3-A9MzFr-118" value="Sim" style="text;html=1;strokeColor=none;fillColor=none;align=center;verticalAlign=middle;whiteSpace=wrap;rounded=0;" vertex="1" parent="1">
          <mxGeometry x="-1380.2" y="-20" width="60" height="30" as="geometry" />
        </mxCell>
        <mxCell id="WEm-kXCdfUgt3-A9MzFr-125" style="edgeStyle=orthogonalEdgeStyle;rounded=0;orthogonalLoop=1;jettySize=auto;html=1;" edge="1" parent="1" source="WEm-kXCdfUgt3-A9MzFr-119" target="WEm-kXCdfUgt3-A9MzFr-67">
          <mxGeometry relative="1" as="geometry" />
        </mxCell>
        <mxCell id="WEm-kXCdfUgt3-A9MzFr-127" style="edgeStyle=orthogonalEdgeStyle;rounded=0;orthogonalLoop=1;jettySize=auto;html=1;" edge="1" parent="1" source="WEm-kXCdfUgt3-A9MzFr-119" target="WEm-kXCdfUgt3-A9MzFr-126">
          <mxGeometry relative="1" as="geometry" />
        </mxCell>
        <mxCell id="WEm-kXCdfUgt3-A9MzFr-119" value="opcaoEscolhida == 4" style="strokeWidth=2;html=1;shape=mxgraph.flowchart.decision;whiteSpace=wrap;" vertex="1" parent="1">
          <mxGeometry x="-1510.2" y="125" width="100" height="100" as="geometry" />
        </mxCell>
        <mxCell id="WEm-kXCdfUgt3-A9MzFr-121" value="Não" style="text;html=1;strokeColor=none;fillColor=none;align=center;verticalAlign=middle;whiteSpace=wrap;rounded=0;" vertex="1" parent="1">
          <mxGeometry x="-1520.2" y="60" width="60" height="30" as="geometry" />
        </mxCell>
        <mxCell id="WEm-kXCdfUgt3-A9MzFr-122" value="Sim" style="text;html=1;strokeColor=none;fillColor=none;align=center;verticalAlign=middle;whiteSpace=wrap;rounded=0;" vertex="1" parent="1">
          <mxGeometry x="-1380.2" y="140" width="60" height="30" as="geometry" />
        </mxCell>
        <mxCell id="WEm-kXCdfUgt3-A9MzFr-128" style="edgeStyle=orthogonalEdgeStyle;rounded=0;orthogonalLoop=1;jettySize=auto;html=1;entryX=0.5;entryY=0;entryDx=0;entryDy=0;" edge="1" parent="1" source="WEm-kXCdfUgt3-A9MzFr-126" target="WEm-kXCdfUgt3-A9MzFr-134">
          <mxGeometry relative="1" as="geometry">
            <mxPoint x="-1250.2" y="400" as="targetPoint" />
          </mxGeometry>
        </mxCell>
        <mxCell id="WEm-kXCdfUgt3-A9MzFr-126" value="opcaoEscolhida == 5" style="strokeWidth=2;html=1;shape=mxgraph.flowchart.decision;whiteSpace=wrap;" vertex="1" parent="1">
          <mxGeometry x="-1510.2" y="290" width="100" height="100" as="geometry" />
        </mxCell>
        <mxCell id="WEm-kXCdfUgt3-A9MzFr-129" value="Sim" style="text;html=1;strokeColor=none;fillColor=none;align=center;verticalAlign=middle;whiteSpace=wrap;rounded=0;" vertex="1" parent="1">
          <mxGeometry x="-1380.2" y="310" width="60" height="30" as="geometry" />
        </mxCell>
        <mxCell id="WEm-kXCdfUgt3-A9MzFr-151" style="edgeStyle=orthogonalEdgeStyle;rounded=0;orthogonalLoop=1;jettySize=auto;html=1;entryX=0.5;entryY=0;entryDx=0;entryDy=0;entryPerimeter=0;" edge="1" parent="1" source="WEm-kXCdfUgt3-A9MzFr-130" target="WEm-kXCdfUgt3-A9MzFr-146">
          <mxGeometry relative="1" as="geometry" />
        </mxCell>
        <mxCell id="WEm-kXCdfUgt3-A9MzFr-130" value="break;" style="rounded=1;whiteSpace=wrap;html=1;absoluteArcSize=1;arcSize=14;strokeWidth=2;" vertex="1" parent="1">
          <mxGeometry x="-382.81" y="960" width="105" height="50" as="geometry" />
        </mxCell>
        <mxCell id="WEm-kXCdfUgt3-A9MzFr-153" style="edgeStyle=orthogonalEdgeStyle;rounded=0;orthogonalLoop=1;jettySize=auto;html=1;entryX=0.5;entryY=0;entryDx=0;entryDy=0;entryPerimeter=0;" edge="1" parent="1" source="WEm-kXCdfUgt3-A9MzFr-132" target="WEm-kXCdfUgt3-A9MzFr-154">
          <mxGeometry relative="1" as="geometry">
            <mxPoint x="-960.2100000000007" y="1080" as="targetPoint" />
          </mxGeometry>
        </mxCell>
        <mxCell id="WEm-kXCdfUgt3-A9MzFr-132" value="break;" style="rounded=1;whiteSpace=wrap;html=1;absoluteArcSize=1;arcSize=14;strokeWidth=2;" vertex="1" parent="1">
          <mxGeometry x="-1012.71" y="940" width="105" height="50" as="geometry" />
        </mxCell>
        <mxCell id="WEm-kXCdfUgt3-A9MzFr-136" style="edgeStyle=orthogonalEdgeStyle;rounded=0;orthogonalLoop=1;jettySize=auto;html=1;" edge="1" parent="1" source="WEm-kXCdfUgt3-A9MzFr-134" target="WEm-kXCdfUgt3-A9MzFr-135">
          <mxGeometry relative="1" as="geometry" />
        </mxCell>
        <mxCell id="WEm-kXCdfUgt3-A9MzFr-134" value="parada = false;" style="rounded=1;whiteSpace=wrap;html=1;absoluteArcSize=1;arcSize=14;strokeWidth=2;" vertex="1" parent="1">
          <mxGeometry x="-1300.2" y="410" width="100" height="50" as="geometry" />
        </mxCell>
        <mxCell id="WEm-kXCdfUgt3-A9MzFr-158" style="edgeStyle=orthogonalEdgeStyle;rounded=0;orthogonalLoop=1;jettySize=auto;html=1;entryX=0.5;entryY=0;entryDx=0;entryDy=0;entryPerimeter=0;" edge="1" parent="1" source="WEm-kXCdfUgt3-A9MzFr-135" target="WEm-kXCdfUgt3-A9MzFr-157">
          <mxGeometry relative="1" as="geometry" />
        </mxCell>
        <mxCell id="WEm-kXCdfUgt3-A9MzFr-135" value="break;" style="rounded=1;whiteSpace=wrap;html=1;absoluteArcSize=1;arcSize=14;strokeWidth=2;" vertex="1" parent="1">
          <mxGeometry x="-1300.2" y="495" width="100" height="50" as="geometry" />
        </mxCell>
        <mxCell id="WEm-kXCdfUgt3-A9MzFr-145" style="edgeStyle=orthogonalEdgeStyle;rounded=0;orthogonalLoop=1;jettySize=auto;html=1;entryX=1;entryY=0.5;entryDx=0;entryDy=0;entryPerimeter=0;" edge="1" parent="1" source="WEm-kXCdfUgt3-A9MzFr-138" target="WEm-kXCdfUgt3-A9MzFr-144">
          <mxGeometry relative="1" as="geometry" />
        </mxCell>
        <mxCell id="WEm-kXCdfUgt3-A9MzFr-138" value="" style="strokeWidth=2;html=1;shape=mxgraph.flowchart.start_2;whiteSpace=wrap;" vertex="1" parent="1">
          <mxGeometry x="959.8" y="1130" width="30" height="30" as="geometry" />
        </mxCell>
        <mxCell id="WEm-kXCdfUgt3-A9MzFr-152" style="edgeStyle=orthogonalEdgeStyle;rounded=0;orthogonalLoop=1;jettySize=auto;html=1;entryX=1;entryY=0.5;entryDx=0;entryDy=0;entryPerimeter=0;" edge="1" parent="1" source="WEm-kXCdfUgt3-A9MzFr-144" target="WEm-kXCdfUgt3-A9MzFr-146">
          <mxGeometry relative="1" as="geometry" />
        </mxCell>
        <mxCell id="WEm-kXCdfUgt3-A9MzFr-144" value="" style="strokeWidth=2;html=1;shape=mxgraph.flowchart.start_2;whiteSpace=wrap;" vertex="1" parent="1">
          <mxGeometry x="299.8" y="1130" width="30" height="30" as="geometry" />
        </mxCell>
        <mxCell id="WEm-kXCdfUgt3-A9MzFr-155" style="edgeStyle=orthogonalEdgeStyle;rounded=0;orthogonalLoop=1;jettySize=auto;html=1;entryX=1;entryY=0.5;entryDx=0;entryDy=0;entryPerimeter=0;" edge="1" parent="1" source="WEm-kXCdfUgt3-A9MzFr-146" target="WEm-kXCdfUgt3-A9MzFr-154">
          <mxGeometry relative="1" as="geometry" />
        </mxCell>
        <mxCell id="WEm-kXCdfUgt3-A9MzFr-146" value="" style="strokeWidth=2;html=1;shape=mxgraph.flowchart.start_2;whiteSpace=wrap;" vertex="1" parent="1">
          <mxGeometry x="-345.31" y="1130" width="30" height="30" as="geometry" />
        </mxCell>
        <mxCell id="WEm-kXCdfUgt3-A9MzFr-159" style="edgeStyle=orthogonalEdgeStyle;rounded=0;orthogonalLoop=1;jettySize=auto;html=1;entryX=1;entryY=0.5;entryDx=0;entryDy=0;entryPerimeter=0;" edge="1" parent="1" source="WEm-kXCdfUgt3-A9MzFr-154" target="WEm-kXCdfUgt3-A9MzFr-157">
          <mxGeometry relative="1" as="geometry" />
        </mxCell>
        <mxCell id="WEm-kXCdfUgt3-A9MzFr-154" value="" style="strokeWidth=2;html=1;shape=mxgraph.flowchart.start_2;whiteSpace=wrap;" vertex="1" parent="1">
          <mxGeometry x="-974.49" y="1130" width="30" height="30" as="geometry" />
        </mxCell>
        <mxCell id="WEm-kXCdfUgt3-A9MzFr-160" style="edgeStyle=orthogonalEdgeStyle;rounded=0;orthogonalLoop=1;jettySize=auto;html=1;entryX=0;entryY=0.5;entryDx=0;entryDy=0;entryPerimeter=0;" edge="1" parent="1" source="WEm-kXCdfUgt3-A9MzFr-157" target="WEm-kXCdfUgt3-A9MzFr-81">
          <mxGeometry relative="1" as="geometry">
            <Array as="points">
              <mxPoint x="-1610.2" y="1145" />
              <mxPoint x="-1610.2" y="-870" />
            </Array>
          </mxGeometry>
        </mxCell>
        <mxCell id="WEm-kXCdfUgt3-A9MzFr-157" value="" style="strokeWidth=2;html=1;shape=mxgraph.flowchart.start_2;whiteSpace=wrap;" vertex="1" parent="1">
          <mxGeometry x="-1265.2" y="1130" width="30" height="30" as="geometry" />
        </mxCell>
        <mxCell id="WEm-kXCdfUgt3-A9MzFr-162" value="Fim" style="strokeWidth=2;html=1;shape=mxgraph.flowchart.terminator;whiteSpace=wrap;" vertex="1" parent="1">
          <mxGeometry x="-1500.2" y="1310" width="100" height="60" as="geometry" />
        </mxCell>
        <mxCell id="WEm-kXCdfUgt3-A9MzFr-167" style="edgeStyle=orthogonalEdgeStyle;rounded=0;orthogonalLoop=1;jettySize=auto;html=1;" edge="1" parent="1" source="WEm-kXCdfUgt3-A9MzFr-164" target="WEm-kXCdfUgt3-A9MzFr-81">
          <mxGeometry relative="1" as="geometry" />
        </mxCell>
        <mxCell id="WEm-kXCdfUgt3-A9MzFr-164" value="parada == true;" style="rounded=1;whiteSpace=wrap;html=1;absoluteArcSize=1;arcSize=14;strokeWidth=2;" vertex="1" parent="1">
          <mxGeometry x="-1510.2" y="-1020" width="100" height="50" as="geometry" />
        </mxCell>
      </root>
    </mxGraphModel>
  </diagram>
</mxfile>
